HIERARCHY
ROOT Hips
{
	OFFSET 0.000000 0.000000 0.000000 
	CHANNELS 6 Xposition Yposition Zposition Yrotation Zrotation Xrotation 
	JOINT Lumbar
	{
		OFFSET 0.000000 0.000000 0.000000 
		CHANNELS 3 Zrotation Xrotation Yrotation
		JOINT Neck
		{
			OFFSET 0.000000 0.445665 0.000000 
			CHANNELS 3 Zrotation Xrotation Yrotation
			End Site
			{
				OFFSET 0.000000 0.227535 0.000000 
			}
		}
		JOINT RightShoulder
		{
			OFFSET 0.019635 0.377685 0.194865 
			CHANNELS 3 Zrotation Xrotation Yrotation
			JOINT RightElbow
			{
				OFFSET 0.000000 -0.243375 0.000000 
				CHANNELS 2 Zrotation Yrotation
				JOINT RightWrist
				{
					OFFSET 0.000000 -0.264825 0.000000 
					CHANNELS 2 Zrotation Xrotation
					End Site
					{
						OFFSET 0.006600 -0.176220 0.000990 
					}
				}
			}
		}
		JOINT LeftShoulder
		{
			OFFSET 0.019635 0.377685 -0.194865 
			CHANNELS 3 Zrotation Xrotation Yrotation
			JOINT LeftElbow
			{
				OFFSET 0.000000 -0.243375 0.000000 
				CHANNELS 2 Zrotation Yrotation
				JOINT LeftWrist
				{
					OFFSET 0.000000 -0.264825 0.000000 
					CHANNELS 2 Zrotation Xrotation
					End Site
					{
						OFFSET 0.006600 -0.176220 -0.000990 
					}
				}
			}
		}
	}
	JOINT RightHip
	{
		OFFSET 0.052140 -0.069960 0.075570 
		CHANNELS 3 Zrotation Xrotation Yrotation
		JOINT RightKnee
		{
			OFFSET 0.000000 -0.402270 0.000000 
			CHANNELS 1 Zrotation
			JOINT RightAnkle
			{
				OFFSET 0.000000 -0.404085 0.000000 
				CHANNELS 3 Zrotation Xrotation Yrotation
				End Site
				{
					OFFSET 0.204105 -0.089430 0.008415 
				}
			}
		}
	}
	JOINT LeftHip
	{
		OFFSET 0.052140 -0.069960 -0.075570 
		CHANNELS 3 Zrotation Xrotation Yrotation
		JOINT LeftKnee
		{
			OFFSET 0.000000 -0.402270 0.000000 
			CHANNELS 1 Zrotation
			JOINT LeftAnkle
			{
				OFFSET 0.000000 -0.404085 0.000000 
				CHANNELS 3 Zrotation Xrotation Yrotation
				End Site
				{
					OFFSET 0.204105 -0.089430 -0.008415 
				}
			}
		}
	}
}
MOTION
Frames: 31
Frame Time: 0.02
0.00228 0.00104 0.00072 21.62548 -22.98518 -6.87124 45.34654 3.77773 -3.58653 -7.88967 -9.26428 -0.15542 -22.3026 -13.14365 3.68498 38.87771 70.74025 3.46496 -4.7152 -28.02972 13.31272 -6.89848 41.80933 -95.3177 12.37262 0.40705 34.95948 -0.37466 -6.37023 -20.37509 -8.49784 -4.69343 -3.21455 37.36386 7.17076 4.15374 -26.94559 -9.45347 5.09199 3.51211
0.00202 0.001 0.00127 21.58427 -22.99204 -6.87883 45.29652 3.54653 -3.66304 -8.06755 -8.15446 -0.15718 -22.19999 -12.91064 3.41095 38.59065 74.5741 4.16019 -3.8786 -27.71001 13.4459 -6.56396 41.90448 -95.43869 12.52739 0.4025 35.00344 -0.36413 -6.55681 -20.3605 -8.47856 -4.6724 -3.2034 37.42905 7.26527 4.38627 -26.99685 -9.44452 5.07554 3.50092
0.00177 0.00097 0.00183 21.54322 -22.99891 -6.88635 45.24661 3.31583 -3.73945 -8.24488 -7.0473 -0.15894 -22.09757 -12.67839 3.13806 38.30419 78.39592 4.85309 -3.0447 -27.39083 13.57859 -6.23002 41.99904 -95.56265 12.68252 0.39745 35.04733 -0.35374 -6.74277 -20.34598 -8.45934 -4.65143 -3.19228 37.49406 7.35935 4.61782 -27.0479 -9.43559 5.05914 3.48977
0.00151 0.00093 0.00238 21.50214 -23.00576 -6.89391 45.19673 3.0853 -3.81575 -8.42222 -5.94075 -0.16069 -21.99524 -12.44609 2.86491 38.01795 82.21812 5.54617 -2.21066 -27.07203 13.71136 -5.89644 42.09384 -95.68405 12.83701 0.39278 35.09116 -0.34326 -6.92878 -20.33144 -8.44012 -4.63046 -3.18116 37.55906 7.45354 4.84955 -27.09899 -9.42667 5.04274 3.47862
0.00125 0.00089 0.00294 21.4609 -23.0126 -6.90158 45.14677 2.85436 -3.89212 -8.6001 -4.83186 -0.16245 -21.89278 -12.21306 2.59055 37.73125 86.05189 6.24158 -1.37399 -26.75288 13.84462 -5.56248 42.18934 -95.80054 12.99067 0.38892 35.13506 -0.33258 -7.11541 -20.3168 -8.42086 -4.60944 -3.17001 37.62424 7.54825 5.08246 -27.15032 -9.41772 5.02627 3.46741
0.00099 0.00086 0.00349 21.42025 -23.0195 -6.90876 45.09695 2.62417 -3.96861 -8.77626 -3.72844 -0.1642 -21.79045 -11.98248 2.32079 37.44532 89.84808 6.92912 -0.54598 -26.43367 13.9761 -5.22863 42.28192 -95.93981 13.14877 0.38143 35.17892 -0.32283 -7.29994 -20.30256 -8.4017 -4.58857 -3.15894 37.68888 7.64099 5.31118 -27.20077 -9.40879 5.01001 3.45637
0.00073 0.00082 0.00405 21.37842 -23.02629 -6.91691 45.04691 2.39269 -4.04474 -8.95568 -2.61516 -0.16596 -21.68795 -11.74712 2.04198 37.15807 93.7169 7.63188 0.29875 -26.11491 14.11107 -4.89484 42.38023 -96.03492 13.29818 0.38096 35.2228 -0.3112 -7.48855 -20.28753 -8.38234 -4.56742 -3.14773 37.75453 7.73754 5.5478 -27.25293 -9.39988 4.99337 3.44504
0.00047 0.00079 0.0046 21.33777 -23.03317 -6.9242 44.99704 2.16248 -4.12127 -9.1321 -1.51109 -0.16771 -21.58565 -11.51635 1.77168 36.87219 97.51658 8.32034 1.12766 -25.79577 14.24273 -4.56116 42.47335 -96.1674 13.45485 0.37455 35.26667 -0.30133 -7.67328 -20.27323 -8.3632 -4.54654 -3.13666 37.81927 7.83065 5.77765 -27.30352 -9.39089 4.97703 3.43394
0.00021 0.00075 0.00514 21.29818 -23.04019 -6.9303 44.94748 1.93339 -4.19806 -9.3049 -0.41721 -0.16947 -21.48337 -11.29041 1.51106 36.58721 101.24189 8.99265 1.93915 -25.47583 14.37074 -4.22672 42.55976 -96.35954 13.62362 0.35865 35.31052 -0.29351 -7.8538 -20.25981 -8.34422 -4.52593 -3.12569 37.88285 7.91928 5.99722 -27.35216 -9.38205 4.96126 3.42327
-3e-05 0.00071 0.00576 21.25132 -23.04651 -6.94279 44.89643 1.69654 -4.27267 -9.49871 0.73857 -0.17122 -21.38029 -11.0343 1.19261 36.29473 105.42568 9.76188 2.85668 -25.15945 14.52096 -3.89394 42.68367 -96.25049 13.73247 0.39062 35.35444 -0.2736 -8.06014 -20.2413 -8.32399 -4.50356 -3.11392 37.95297 8.03288 6.26994 -27.41193 -9.3731 4.94283 3.41054
-0.00033 0.00068 0.00619 21.22056 -23.05423 -6.94211 44.84836 1.47695 -4.35231 -9.64806 1.76151 -0.17298 -21.27934 -10.84338 0.99751 36.01959 108.62239 10.32402 3.5467 -24.83629 14.62353 -3.55948 42.7292 -96.74966 13.96146 0.32595 35.39824 -0.27938 -8.21098 -20.23355 -8.30657 -4.48507 -3.10397 38.00935 8.0943 6.43437 -27.4483 -9.36387 4.92963 3.40191
-0.00076 0.0007 0.00611 21.22794 -23.06649 -6.90252 44.80976 1.29774 -4.44226 -9.67533 2.43529 -0.17477 -21.1803 -10.82022 1.13226 35.7794 109.25267 10.33488 3.6388 -24.48839 14.60073 -3.20541 42.55191 -99.16436 14.57629 -0.0433 35.44164 -0.35494 -8.21637 -20.2555 -8.29551 -4.47601 -3.09816 38.02716 8.00664 6.2659 -27.419 -9.35819 4.93398 3.40677
-0.00126 0.00074 0.00582 21.25255 -23.08003 -6.85027 44.77385 1.13726 -4.53782 -9.65803 2.97293 -0.17657 -21.08391 -10.86435 1.39184 35.55862 108.86954 10.13535 3.49838 -24.13507 14.52925 -2.85272 42.29776 -102.14773 15.30218 -0.5029 35.48494 -0.45642 -8.16473 -20.2882 -8.28754 -4.47108 -3.09433 38.03136 7.86746 5.9946 -27.36648 -9.3515 4.94305 3.41538
-0.00176 0.00075 0.00559 21.27327 -23.09256 -6.80552 44.73593 0.97265 -4.63321 -9.66115 3.56275 -0.17835 -20.98916 -10.88525 1.60076 35.33767 108.85209 10.02015 3.44609 -23.78787 14.47635 -2.50877 42.08329 -104.70536 15.93951 -0.89468 35.5283 -0.54651 -8.13474 -20.31591 -8.27898 -4.46505 -3.09014 38.04228 7.75597 5.79455 -27.32551 -9.34234 4.94774 3.42077
-0.00213 0.00081 0.00551 21.2776 -23.10693 -6.7531 44.70155 0.78919 -4.71893 -9.6633 4.19289 -0.18018 -20.88334 -10.87618 1.78692 35.08165 109.21629 9.94931 3.464 -23.42408 14.43767 -2.12402 41.8469 -107.9557 16.73444 -1.39716 35.57153 -0.63501 -8.12275 -20.34419 -8.26685 -4.45572 -3.08364 38.05071 7.62719 5.49367 -27.28026 -9.34523 4.96152 3.43238
-0.0028 0.00079 0.00507 21.31989 -23.11771 -6.71398 44.66015 0.64993 -4.82566 -9.65711 4.70717 -0.18191 -20.80004 -10.94432 2.0468 34.90153 108.56648 9.73975 3.28483 -23.09501 14.35859 -1.82615 41.64006 -109.91652 17.23171 -1.69357 35.61512 -0.73292 -8.05965 -20.3737 -8.26308 -4.45428 -3.08245 38.06138 7.52115 5.37483 -27.23847 -9.3232 4.95792 3.43216
-0.00426 0.00056 0.00372 21.46473 -23.11882 -6.71205 44.60098 0.62351 -4.99308 -9.63739 4.93214 -0.18333 -20.78793 -11.21861 2.50755 34.94108 105.188 9.16914 2.58306 -22.85124 14.17374 -1.75386 41.51583 -108.01947 16.84338 -1.37251 35.65909 -0.85081 -7.87085 -20.40559 -8.27986 -4.47328 -3.09521 38.07912 7.49968 5.81472 -27.2115 -9.22884 4.90166 3.39618
-0.00605 0.00024 0.00201 21.64668 -23.11611 -6.72447 44.53412 0.64166 -5.18079 -9.6111 5.04595 -0.18464 -20.79633 -11.56626 3.03298 35.05353 100.85835 8.47194 1.69795 -22.64512 13.95117 -1.77119 41.42735 -104.83708 16.15902 -0.84625 35.70376 -0.97724 -7.63273 -20.43839 -8.30526 -4.50009 -3.11325 38.09998 7.50117 6.43534 -27.18891 -9.11011 4.82841 3.34856
-0.00771 -4e-05 0.00045 21.81054 -23.11489 -6.73205 44.46944 0.64258 -5.35643 -9.5887 5.21219 -0.186 -20.78934 -11.87443 3.51044 35.12291 97.07905 7.85184 0.9196 -22.42922 13.7498 -1.75711 41.33416 -102.34302 15.63331 -0.43067 35.74831 -1.09946 -7.41572 -20.46929 -8.32789 -4.52357 -3.12904 38.12108 7.4862 6.95334 -27.16459 -9.00497 4.76519 3.30765
-0.00926 -0.0003 -0.00104 21.98073 -23.11502 -6.73201 44.41086 0.63188 -5.54391 -9.56083 5.36479 -0.18733 -20.80914 -12.21186 4.07052 35.2351 92.76167 7.14097 0.03287 -22.18098 13.52922 -1.70522 41.18948 -99.41764 15.00723 0.057 35.79119 -1.22375 -7.20055 -20.50546 -8.34583 -4.5464 -3.14436 38.13494 7.49494 7.55536 -27.1383 -8.88917 4.6923 3.26082
-0.01113 -0.00062 -0.00277 22.14563 -23.11107 -6.75149 44.33711 0.65512 -5.71196 -9.54352 5.5222 -0.18872 -20.77661 -12.50364 4.47245 35.27498 89.35755 6.59282 -0.66702 -22.01059 13.34079 -1.75147 41.16163 -97.09212 14.52149 0.44231 35.83874 -1.34566 -6.97269 -20.53247 -8.37548 -4.57222 -3.16177 38.16452 7.4603 8.02521 -27.11753 -8.7898 4.63559 3.2236
-0.01377 -0.00109 -0.00514 22.29233 -23.09958 -6.82063 44.22806 0.76594 -5.81747 -9.55597 5.71147 -0.19022 -20.60633 -12.66186 4.42095 35.10085 88.66619 6.51707 -0.81937 -22.03312 13.2474 -2.06353 41.44608 -96.60341 14.46662 0.51503 35.89168 -1.457 -6.70437 -20.52091 -8.43588 -4.60582 -3.18462 38.23911 7.30173 8.09916 -27.1105 -8.74194 4.62639 3.21503
-0.01672 -0.00162 -0.00773 22.43111 -23.08354 -6.90903 44.10279 0.90819 -5.90362 -9.57966 5.91136 -0.19181 -20.3806 -12.76941 4.2086 34.85204 88.93761 6.61155 -0.77428 -22.13488 13.18889 -2.46848 41.8467 -96.77748 14.56624 0.47548 35.95151 -1.56603 -6.42871 -20.50386 -8.50764 -4.64181 -3.20918 38.32906 7.09882 8.03236 -27.10912 -8.71142 4.63424 3.21665
-0.01953 -0.00214 -0.01021 22.57003 -23.06784 -6.98928 43.98228 1.03308 -6.00092 -9.59915 6.11322 -0.19338 -20.17238 -12.89285 4.06859 34.63329 88.80335 6.63488 -0.80901 -22.20913 13.11608 -2.81942 42.19662 -96.74268 14.616 0.47302 36.01191 -1.67702 -6.16794 -20.49613 -8.57385 -4.6758 -3.23236 38.41043 6.91531 8.02123 -27.1055 -8.67289 4.63516 3.21413
-0.02233 -0.00261 -0.01277 22.72562 -23.05954 -7.06784 43.8739 1.17331 -6.0882 -9.61469 6.28394 -0.19481 -19.99683 -13.04862 3.93005 34.42789 88.50912 6.62919 -0.8898 -22.24981 13.03367 -3.22178 42.5424 -96.30421 14.57714 0.53173 36.05324 -1.78382 -5.85593 -20.45403 -8.64203 -4.71416 -3.25842 38.49849 6.73519 8.04946 -27.10045 -8.63412 4.6322 3.20923
-0.02524 -0.00319 -0.01519 22.84318 -23.03448 -7.15384 43.73475 1.28746 -6.19249 -9.64101 6.52162 -0.19664 -19.74045 -13.12457 3.7545 34.18297 88.77872 6.72385 -0.82827 -22.3775 12.9822 -3.53983 42.91954 -96.84215 14.75393 0.43967 36.14028 -1.89949 -5.65043 -20.48922 -8.70868 -4.7436 -3.27865 38.57645 6.53789 7.96231 -27.09993 -8.60021 4.64139 3.21174
-0.02837 -0.00403 -0.0172 22.86559 -22.96713 -7.25981 43.52968 1.33033 -6.33984 -9.69638 6.95755 -0.19866 -19.26957 -12.98924 3.47409 33.78997 90.46525 7.07392 -0.39578 -22.73566 12.98886 -3.58413 43.39071 -100.2613 15.57422 -0.09483 36.3142 -2.03303 -5.7334 -20.67835 -8.76829 -4.75025 -3.28364 38.62067 6.29793 7.5697 -27.10797 -8.57627 4.68169 3.23322
-0.03161 -0.00498 -0.01904 22.84841 -22.88259 -7.37178 43.29149 1.34406 -6.50651 -9.76202 7.45748 -0.20123 -18.72082 -12.77669 3.17107 33.37213 92.6721 7.51612 0.16893 -23.17602 13.02881 -3.54228 43.8814 -104.58992 16.59403 -0.76938 36.54073 -2.17672 -5.92527 -20.95634 -8.82593 -4.74736 -3.28244 38.65457 6.04327 7.0687 -27.12071 -8.55668 4.7334 3.26168
-0.03483 -0.0059 -0.02089 22.84388 -22.80404 -7.47823 43.05856 1.36536 -6.66987 -9.82147 7.91896 -0.20412 -18.20983 -12.59985 2.90362 33.00022 94.58415 7.9036 0.65715 -23.57306 13.06647 -3.55272 44.34093 -108.27059 17.46468 -1.3442 36.76813 -2.32062 -6.07264 -21.23411 -8.88444 -4.74718 -3.2832 38.69452 5.79916 6.63066 -27.13313 -8.53457 4.7788 3.28631
-0.03795 -0.00676 -0.02302 22.86134 -22.73291 -7.59714 42.86616 1.41172 -6.80937 -9.88711 8.42272 -0.20463 -17.68375 -12.41412 2.51734 32.47112 96.77926 8.35082 1.22238 -24.00069 13.05255 -3.51533 44.9034 -112.93081 18.57771 -2.07032 36.89197 -2.44471 -6.1994 -21.34402 -8.94345 -4.75392 -3.28761 38.72923 5.53702 6.13088 -27.13862 -8.51497 4.82946 3.31402
-0.0413 -0.00775 -0.02454 22.82409 -22.64244 -7.69129 42.58199 1.39858 -7.00352 -9.94295 8.85044 -0.21021 -17.1753 -12.23494 2.38342 32.27498 98.49117 8.69373 1.65482 -24.3798 13.15173 -3.55042 45.2486 -115.8001 19.24352 -2.51919 37.24291 -2.61172 -6.39408 -21.82235 -9.00084 -4.74401 -3.28296 38.77223 5.30971 5.73464 -27.15891 -8.49143 4.87174 3.3369
